<svg enable-background="new 0 0 22 40" viewBox="0 0 22 40" xmlns="http://www.w3.org/2000/svg"><path d="m18.1 13.4c0 .7-.6 1.3-1.3 1.3s-1.3-.6-1.3-1.3.6-1.3 1.3-1.3 1.3.6 1.3 1.3zm-1.6 5.6c0 2.9-2.4 5.3-5.3 5.3s-5.3-2.4-5.3-5.3 2.4-5.3 5.3-5.3 5.3 2.4 5.3 5.3zm-1.9 0c0-1.9-1.5-3.4-3.4-3.4s-3.4 1.5-3.4 3.4 1.5 3.4 3.4 3.4c1.9.1 3.4-1.5 3.4-3.4zm7.4-4.2c0-3.6-2.9-6.5-6.5-6.5h-8.9c-3.6 0-6.5 2.9-6.5 6.5v8.9c0 3.6 2.9 6.5 6.5 6.5h8.9c3.6 0 6.5-2.9 6.5-6.5zm-2.1 8.7c0 2.5-2 4.5-4.5 4.5h-8.7c-2.5 0-4.5-2-4.5-4.5v-8.7c0-2.5 2-4.5 4.5-4.5h8.7c2.5 0 4.5 2 4.5 4.5z" fill="#fff"/></svg>