<?xml version="1.0" encoding="utf-8"?>
<!-- Generator: Adobe Illustrator 21.0.2, SVG Export Plug-In . SVG Version: 6.00 Build 0)  -->
<svg version="1.1" id="Layer_1" xmlns="http://www.w3.org/2000/svg" xmlns:xlink="http://www.w3.org/1999/xlink" x="0px" y="0px"
	 width="20.5px" height="40px" viewBox="0 0 20.5 40" style="enable-background:new 0 0 20.5 40;" xml:space="preserve">
<style type="text/css">
	.st0{fill:#FFFFFF;}
</style>

	<g id="Icon-Envelope" transform="translate(78.000000, 232.000000)">
		<path id="Fill-3" class="st0" d="M-57.7-218.9l-0.8-0.8l-7.5,7.5c-0.9,0.9-2.5,0.9-3.5,0l-7.5-7.5l-0.8,0.8l5.6,5.6l-5.6,5.6
			l0.8,0.8l5.6-5.6l1.1,1.1c0.7,0.7,1.6,1.1,2.5,1.1c0.9,0,1.8-0.4,2.5-1.1l1.1-1.1l5.6,5.6l0.8-0.8l-5.6-5.6L-57.7-218.9"/>
		<path id="Fill-4" class="st0" d="M-59.3-205.4h-16.9c-1,0-1.8-0.8-1.8-1.8v-12.1c0-1,0.8-1.8,1.8-1.8h16.9c1,0,1.8,0.8,1.8,1.8
			v12.1C-57.5-206.2-58.3-205.4-59.3-205.4L-59.3-205.4z M-76.2-219.9c-0.3,0-0.6,0.3-0.6,0.6v12.1c0,0.3,0.3,0.6,0.6,0.6h16.9
			c0.3,0,0.6-0.3,0.6-0.6v-12.1c0-0.3-0.3-0.6-0.6-0.6H-76.2L-76.2-219.9z"/>
	</g>

</svg>
