<svg xmlns="http://www.w3.org/2000/svg" xmlns:xlink="http://www.w3.org/1999/xlink" viewBox="0 0 750 500"><defs><style>.a{fill:none;}.b{fill:#006f62;}.c{clip-path:url(#a);}.d{fill:#c5eaf4;}.e{fill:#19a3a3;}.f{fill:#00657c;}.g{fill:#005670;}.h{fill:#6ed1cb;}.i{fill:#20989e;}.j{fill:#d6dce8;}.k{clip-path:url(#b);}</style><clipPath id="a"><rect class="a" width="750" height="500"/></clipPath><clipPath id="b"><rect class="a" x="-530.47" width="500" height="500"/></clipPath></defs><title>158527-OVM5IV-675</title><rect class="a" width="750" height="500"/><rect class="b" width="750" height="500"/><g class="c"><path class="d" d="M499.94,449.33h0a3.33,3.33,0,0,1,0-4.71L644.19,300.37a3.33,3.33,0,0,1,4.71,0h0a3.33,3.33,0,0,1,0,4.71L504.65,449.33A3.33,3.33,0,0,1,499.94,449.33Z"/><path class="e" d="M366.2,523.38h0a7,7,0,0,1,0-9.9l28.33-28.33a7,7,0,0,1,9.9,0h0a7,7,0,0,1,0,9.9L376.1,523.38A7,7,0,0,1,366.2,523.38Z"/><path class="f" d="M575.72,526.79h0a3.33,3.33,0,0,1,0-4.71l92-92.05a3.36,3.36,0,0,1,4.72,0h0a3.36,3.36,0,0,1,0,4.72l-92.05,92A3.33,3.33,0,0,1,575.72,526.79Z"/><path class="f" d="M444.72,416.1h0a3.33,3.33,0,0,1,0-4.71l92-92a3.34,3.34,0,0,1,4.72,0h0a3.35,3.35,0,0,1,0,4.71l-92.05,92A3.33,3.33,0,0,1,444.72,416.1Z"/><path class="f" d="M372.58,484.78h0a3.33,3.33,0,0,1,0-4.71l20.76-20.77a3.33,3.33,0,0,1,4.71,0h0a3.34,3.34,0,0,1,0,4.72l-20.76,20.76A3.33,3.33,0,0,1,372.58,484.78Z"/><path class="e" d="M417.13,471h0a7.69,7.69,0,0,1,0-10.84l68.12-68.12a7.69,7.69,0,0,1,10.84,0h0a7.67,7.67,0,0,1,0,10.84L428,471A7.7,7.7,0,0,1,417.13,471Z"/><path class="g" d="M433.12,526.76h0a19.87,19.87,0,0,1,0-28L538.05,393.82a19.87,19.87,0,0,1,28,0h0a19.86,19.86,0,0,1,0,28L461.12,526.76A19.86,19.86,0,0,1,433.12,526.76Z"/><path class="h" d="M584.24,474.08h0a12.87,12.87,0,0,1,0-18.16l39.82-39.82a12.87,12.87,0,0,1,18.16,0h0a12.87,12.87,0,0,1,0,18.15L602.4,474.08A12.89,12.89,0,0,1,584.24,474.08Z"/><path class="i" d="M488.36,542.42h0a12.89,12.89,0,0,1,0-18.16l28.51-28.51a12.89,12.89,0,0,1,18.16,0h0a12.89,12.89,0,0,1,0,18.16l-28.51,28.51A12.89,12.89,0,0,1,488.36,542.42Z"/><path class="i" d="M611.7,527.6h0a12.87,12.87,0,0,1,0-18.16l28.51-28.51a12.86,12.86,0,0,1,18.15,0h0a12.87,12.87,0,0,1,0,18.16L629.85,527.6A12.87,12.87,0,0,1,611.7,527.6Z"/><path class="j" d="M499.3,572h0a7.67,7.67,0,0,1,0-10.84l68.11-68.12a7.7,7.7,0,0,1,10.85,0h0a7.69,7.69,0,0,1,0,10.84L510.14,572A7.69,7.69,0,0,1,499.3,572Z"/><path class="e" d="M477,516.76h0a19.85,19.85,0,0,1,0-28L582,383.82a19.86,19.86,0,0,1,28,0h0a19.86,19.86,0,0,1,0,28L505,516.76A19.86,19.86,0,0,1,477,516.76Z"/><path class="g" d="M544.21,471.22h0a7,7,0,0,1,0-9.9L635.52,370a7,7,0,0,1,9.9,0h0a7,7,0,0,1,0,9.9l-91.31,91.31A7,7,0,0,1,544.21,471.22Z"/><path class="j" d="M630.67,427.62h0a4.94,4.94,0,0,1,0-7l20.55-20.55a5,5,0,0,1,7,0h0a5,5,0,0,1,0,7l-20.56,20.55A4.94,4.94,0,0,1,630.67,427.62Z"/><path class="j" d="M432,472.09h0a4.94,4.94,0,0,1,0-7l20.55-20.55a5,5,0,0,1,7,0h0a5,5,0,0,1,0,7L439,472.09A4.94,4.94,0,0,1,432,472.09Z"/><path class="g" d="M518.8,395.59a2.88,2.88,0,0,0-4,0l-11.93,11.94a2.86,2.86,0,0,0,4.05,4.05l11.93-11.94A2.88,2.88,0,0,0,518.8,395.59Z"/><path class="h" d="M548.66,489a2.88,2.88,0,0,0-4,0l-11.94,11.94a2.86,2.86,0,1,0,4.05,4l11.94-11.93A2.88,2.88,0,0,0,548.66,489Z"/><path class="j" d="M529.74,464.23h0a1.51,1.51,0,0,1,0-2.12L636.87,355a1.51,1.51,0,0,1,2.12,0h0a1.51,1.51,0,0,1,0,2.12L531.86,464.23A1.51,1.51,0,0,1,529.74,464.23Z"/><path class="j" d="M539.21,368.12h0a1.49,1.49,0,0,1,0-2.12l80-80.05a1.49,1.49,0,0,1,2.12,0h0a1.49,1.49,0,0,1,0,2.12l-80,80.05A1.49,1.49,0,0,1,539.21,368.12Z"/><path class="j" d="M557.08,540.38h0a1.52,1.52,0,0,1,0-2.13L664.21,431.13a1.49,1.49,0,0,1,2.12,0h0a1.49,1.49,0,0,1,0,2.12L559.21,540.38A1.52,1.52,0,0,1,557.08,540.38Z"/><path class="j" d="M384.64,467.14h0a1.52,1.52,0,0,1,0-2.13l26.65-26.64a1.49,1.49,0,0,1,2.12,0h0a1.51,1.51,0,0,1,0,2.12l-26.65,26.65A1.51,1.51,0,0,1,384.64,467.14Z"/><path class="e" d="M570,479.05h0a1.51,1.51,0,0,1,0-2.12l26.65-26.65a1.51,1.51,0,0,1,2.12,0h0a1.51,1.51,0,0,1,0,2.12L572.1,479.05A1.51,1.51,0,0,1,570,479.05Z"/><path class="e" d="M544.18,332.07h0a1.49,1.49,0,0,1,0-2.12l26.64-26.65a1.51,1.51,0,0,1,2.12,0h0a1.49,1.49,0,0,1,0,2.12L546.3,332.07A1.51,1.51,0,0,1,544.18,332.07Z"/><path class="j" d="M481.6,407.25h0a1.51,1.51,0,0,1,0-2.12l26.65-26.65a1.51,1.51,0,0,1,2.12,0h0a1.51,1.51,0,0,1,0,2.12l-26.65,26.65A1.51,1.51,0,0,1,481.6,407.25Z"/><path class="h" d="M428.53,489.25a2.79,2.79,0,0,0-3.93,0L413,500.81a2.78,2.78,0,0,0,3.92,3.93l11.57-11.57A2.78,2.78,0,0,0,428.53,489.25Z"/><path class="e" d="M509.73,437.34a2.79,2.79,0,0,0-3.93,0l-11.56,11.57a2.77,2.77,0,0,0,3.92,3.92l11.57-11.56A2.79,2.79,0,0,0,509.73,437.34Z"/><path class="h" d="M599.47,524.2h0a4.94,4.94,0,0,1,0-7L620,496.67a5,5,0,0,1,7,0h0a5,5,0,0,1,0,7L606.44,524.2A4.94,4.94,0,0,1,599.47,524.2Z"/><path class="f" d="M612.27,311.44a3.28,3.28,0,0,0-4.64,0l-3.29,3.29a3.28,3.28,0,0,0,4.64,4.64l3.29-3.29A3.28,3.28,0,0,0,612.27,311.44Z"/><path class="h" d="M449.73,385.86a3.3,3.3,0,0,0-4.64,0l-3.3,3.3a3.28,3.28,0,0,0,4.65,4.64l3.29-3.29A3.3,3.3,0,0,0,449.73,385.86Z"/><path class="h" d="M529.57,379.41h0a12.89,12.89,0,0,1,0-18.16l39.82-39.82a12.89,12.89,0,0,1,18.16,0h0a12.87,12.87,0,0,1,0,18.16l-39.82,39.82A12.87,12.87,0,0,1,529.57,379.41Z"/><path class="e" d="M531.59,389.23h0a1.49,1.49,0,0,1,0-2.12l45.26-45.26a1.51,1.51,0,0,1,2.12,0h0a1.51,1.51,0,0,1,0,2.12l-45.26,45.26A1.49,1.49,0,0,1,531.59,389.23Z"/><path class="h" d="M508.48,484.2a3.28,3.28,0,0,0-4.64,0l-3.29,3.29a3.28,3.28,0,0,0,4.64,4.64l3.29-3.29A3.28,3.28,0,0,0,508.48,484.2Z"/><path class="g" d="M584.46,489.12a3.3,3.3,0,0,0-4.64,0l-3.29,3.3a3.28,3.28,0,1,0,4.64,4.64l3.29-3.29A3.3,3.3,0,0,0,584.46,489.12Z"/><path class="d" d="M155.15,59.51h0a3.34,3.34,0,0,1,0-4.72L299.4-89.46a3.35,3.35,0,0,1,4.71,0h0a3.34,3.34,0,0,1,0,4.72L159.86,59.51A3.35,3.35,0,0,1,155.15,59.51Z"/><path class="d" d="M60.77,153.88h0a3.35,3.35,0,0,1,0-4.71l34.52-34.51a3.33,3.33,0,0,1,4.71,0h0a3.33,3.33,0,0,1,0,4.71L65.49,153.88A3.34,3.34,0,0,1,60.77,153.88Z"/><path class="e" d="M21.41,133.56h0a7,7,0,0,1,0-9.9L49.74,95.32a7,7,0,0,1,9.9,0h0a7,7,0,0,1,0,9.9L31.31,133.56A7,7,0,0,1,21.41,133.56Z"/><path class="f" d="M230.93,137h0a3.34,3.34,0,0,1,0-4.72l92-92a3.34,3.34,0,0,1,4.72,0h0a3.35,3.35,0,0,1,0,4.71L235.64,137A3.35,3.35,0,0,1,230.93,137Z"/><path class="f" d="M145,224.31h0a3.35,3.35,0,0,1,0-4.71L191.69,173a3.33,3.33,0,0,1,4.71,0h0a3.33,3.33,0,0,1,0,4.71l-46.64,46.65A3.34,3.34,0,0,1,145,224.31Z"/><path class="f" d="M99.93,26.28h0a3.34,3.34,0,0,1,0-4.72l92-92a3.36,3.36,0,0,1,4.72,0h0a3.36,3.36,0,0,1,0,4.72l-92,92A3.35,3.35,0,0,1,99.93,26.28Z"/><path class="f" d="M27.79,95h0a3.34,3.34,0,0,1,0-4.72L48.55,69.48a3.34,3.34,0,0,1,4.72,0h0a3.35,3.35,0,0,1,0,4.71L32.5,95A3.35,3.35,0,0,1,27.79,95Z"/><path class="e" d="M72.34,81.21h0a7.7,7.7,0,0,1,0-10.85L140.46,2.24a7.69,7.69,0,0,1,10.84,0h0a7.68,7.68,0,0,1,0,10.85L83.19,81.21A7.7,7.7,0,0,1,72.34,81.21Z"/><path class="g" d="M88.33,136.93h0a19.86,19.86,0,0,1,0-28L193.26,4a19.87,19.87,0,0,1,28,0h0a19.86,19.86,0,0,1,0,28L116.33,136.93A19.86,19.86,0,0,1,88.33,136.93Z"/><path class="h" d="M239.45,84.25h0a12.86,12.86,0,0,1,0-18.15l39.82-39.83a12.89,12.89,0,0,1,18.16,0h0a12.89,12.89,0,0,1,0,18.16L257.61,84.25A12.87,12.87,0,0,1,239.45,84.25Z"/><path class="i" d="M143.57,152.6h0a12.89,12.89,0,0,1,0-18.16l28.51-28.51a12.87,12.87,0,0,1,18.16,0h0a12.89,12.89,0,0,1,0,18.16L161.73,152.6A12.89,12.89,0,0,1,143.57,152.6Z"/><path class="i" d="M266.91,137.77h0a12.86,12.86,0,0,1,0-18.15L295.42,91.1a12.87,12.87,0,0,1,18.15,0h0a12.87,12.87,0,0,1,0,18.16l-28.51,28.51A12.86,12.86,0,0,1,266.91,137.77Z"/><path class="j" d="M154.51,182.19h0a7.67,7.67,0,0,1,0-10.84l68.11-68.12a7.7,7.7,0,0,1,10.85,0h0a7.69,7.69,0,0,1,0,10.84l-68.12,68.12A7.69,7.69,0,0,1,154.51,182.19Z"/><path class="e" d="M132.25,126.93h0a19.86,19.86,0,0,1,0-28L237.18-6a19.86,19.86,0,0,1,28,0h0a19.86,19.86,0,0,1,0,28L160.25,126.93A19.86,19.86,0,0,1,132.25,126.93Z"/><path class="g" d="M199.42,81.4h0a7,7,0,0,1,0-9.9l91.31-91.31a7,7,0,0,1,9.9,0h0a7,7,0,0,1,0,9.9L209.32,81.4A7,7,0,0,1,199.42,81.4Z"/><path class="j" d="M285.88,37.8h0a4.94,4.94,0,0,1,0-7l20.55-20.56a5,5,0,0,1,7,0h0a5,5,0,0,1,0,7L292.85,37.8A4.94,4.94,0,0,1,285.88,37.8Z"/><path class="j" d="M87.21,82.27h0a4.94,4.94,0,0,1,0-7l20.55-20.56a5,5,0,0,1,7,0h0a5,5,0,0,1,0,7L94.18,82.27A4.94,4.94,0,0,1,87.21,82.27Z"/><path class="g" d="M174,5.77a2.88,2.88,0,0,0-4,0L158,17.7a2.86,2.86,0,1,0,4.05,4.05L174,9.82A2.88,2.88,0,0,0,174,5.77Z"/><path class="h" d="M203.87,99.18a2.86,2.86,0,0,0-4.05,0l-11.94,11.93a2.86,2.86,0,0,0,4.05,4l11.94-11.93A2.88,2.88,0,0,0,203.87,99.18Z"/><path class="j" d="M185,74.41h0a1.52,1.52,0,0,1,0-2.13L292.08-34.84a1.49,1.49,0,0,1,2.12,0h0a1.51,1.51,0,0,1,0,2.12L187.07,74.41A1.51,1.51,0,0,1,185,74.41Z"/><path class="j" d="M212.29,150.55h0a1.51,1.51,0,0,1,0-2.12L319.42,41.3a1.51,1.51,0,0,1,2.12,0h0a1.5,1.5,0,0,1,0,2.13L214.42,150.55A1.5,1.5,0,0,1,212.29,150.55Z"/><path class="j" d="M118.39,143.65h0a1.5,1.5,0,0,1,0-2.13L145,114.88a1.49,1.49,0,0,1,2.12,0h0a1.49,1.49,0,0,1,0,2.12l-26.64,26.65A1.51,1.51,0,0,1,118.39,143.65Z"/><path class="j" d="M39.85,77.31h0a1.51,1.51,0,0,1,0-2.12L66.5,48.54a1.51,1.51,0,0,1,2.12,0h0a1.51,1.51,0,0,1,0,2.12L42,77.31A1.49,1.49,0,0,1,39.85,77.31Z"/><path class="e" d="M225.19,89.23h0a1.51,1.51,0,0,1,0-2.12l26.65-26.65a1.51,1.51,0,0,1,2.12,0h0a1.51,1.51,0,0,1,0,2.12L227.31,89.23A1.51,1.51,0,0,1,225.19,89.23Z"/><path class="j" d="M136.81,17.43h0a1.51,1.51,0,0,1,0-2.12l26.65-26.65a1.51,1.51,0,0,1,2.12,0h0a1.51,1.51,0,0,1,0,2.12L138.93,17.43A1.51,1.51,0,0,1,136.81,17.43Z"/><path class="h" d="M83.74,99.42a2.79,2.79,0,0,0-3.93,0L68.25,111a2.77,2.77,0,0,0,3.92,3.92l11.57-11.56A2.79,2.79,0,0,0,83.74,99.42Z"/><path class="e" d="M164.94,47.52a2.79,2.79,0,0,0-3.93,0L149.45,59.08A2.78,2.78,0,1,0,153.37,63l11.57-11.57A2.78,2.78,0,0,0,164.94,47.52Z"/><path class="h" d="M254.68,134.38h0a5,5,0,0,1,0-7l20.55-20.55a4.94,4.94,0,0,1,7,0h0a4.94,4.94,0,0,1,0,7l-20.55,20.56A5,5,0,0,1,254.68,134.38Z"/><path class="h" d="M104.94-4a3.28,3.28,0,0,0-4.64,0L97-.67A3.31,3.31,0,0,0,97,4a3.31,3.31,0,0,0,4.65,0l3.29-3.3A3.28,3.28,0,0,0,104.94-4Z"/><path class="h" d="M163.69,94.37a3.3,3.3,0,0,0-4.64,0l-3.29,3.3a3.28,3.28,0,1,0,4.64,4.64L163.69,99A3.3,3.3,0,0,0,163.69,94.37Z"/><path class="g" d="M239.67,99.3a3.28,3.28,0,0,0-4.64,0l-3.29,3.29a3.28,3.28,0,0,0,4.64,4.64l3.29-3.29A3.28,3.28,0,0,0,239.67,99.3Z"/><path class="f" d="M321,487.57h0a3.33,3.33,0,0,1,0-4.71l92-92.05a3.36,3.36,0,0,1,4.72,0h0a3.36,3.36,0,0,1,0,4.72l-92.05,92A3.33,3.33,0,0,1,321,487.57Z"/><path class="j" d="M330.23,432.55h0a4.94,4.94,0,0,1,0-7L350.78,405a5,5,0,0,1,7,0h0a5,5,0,0,1,0,7L337.2,432.55A4.94,4.94,0,0,1,330.23,432.55Z"/><path class="g" d="M262.1,394.57a2.88,2.88,0,0,0-4.05,0l-11.93,11.94a2.86,2.86,0,0,0,4,4l11.93-11.93A2.86,2.86,0,0,0,262.1,394.57Z"/><path class="e" d="M269.54,484h0a1.51,1.51,0,0,1,0-2.12l26.65-26.65a1.49,1.49,0,0,1,2.12,0h0a1.51,1.51,0,0,1,0,2.12L271.66,484A1.51,1.51,0,0,1,269.54,484Z"/><path class="h" d="M457.24,346.8a2.79,2.79,0,0,0-3.93,0l-11.56,11.57a2.77,2.77,0,0,0,3.92,3.92l11.57-11.57A2.78,2.78,0,0,0,457.24,346.8Z"/><path class="e" d="M253,436.32a2.78,2.78,0,0,0-3.92,0l-11.57,11.57a2.77,2.77,0,1,0,3.92,3.92L253,440.24A2.78,2.78,0,0,0,253,436.32Z"/><path class="f" d="M389.28,355.5a3.3,3.3,0,0,0-4.64,0l-3.29,3.3a3.28,3.28,0,0,0,4.64,4.64l3.29-3.3A3.28,3.28,0,0,0,389.28,355.5Z"/><path class="h" d="M326.05,457.33a3.3,3.3,0,0,0-4.64,0l-3.29,3.3a3.28,3.28,0,0,0,4.64,4.64l3.29-3.3A3.28,3.28,0,0,0,326.05,457.33Z"/><path class="e" d="M288.54,417.43h0a1.51,1.51,0,0,1,0-2.12L333.81,370a1.51,1.51,0,0,1,2.12,0h0a1.52,1.52,0,0,1,0,2.13l-45.27,45.26A1.51,1.51,0,0,1,288.54,417.43Z"/><path class="h" d="M251.78,483.18a3.28,3.28,0,0,0-4.64,0l-3.29,3.29a3.28,3.28,0,0,0,4.64,4.64l3.29-3.29A3.28,3.28,0,0,0,251.78,483.18Z"/><path class="g" d="M284,494.05a3.28,3.28,0,0,0-4.64,0l-3.29,3.29a3.28,3.28,0,0,0,4.64,4.64l3.29-3.29A3.28,3.28,0,0,0,284,494.05Z"/><path class="f" d="M3.52,69.85h0a3.34,3.34,0,0,1,0-4.72l92-92a3.33,3.33,0,0,1,4.71,0h0a3.33,3.33,0,0,1,0,4.71l-92,92.05A3.35,3.35,0,0,1,3.52,69.85Z"/><path class="j" d="M12.71,14.83h0a5,5,0,0,1,0-7L33.26-12.7a4.94,4.94,0,0,1,7,0h0a4.94,4.94,0,0,1,0,7L19.68,14.83A5,5,0,0,1,12.71,14.83Z"/><path class="h" d="M8.53,39.61a3.28,3.28,0,0,0-4.64,0L.59,42.9a3.31,3.31,0,0,0,0,4.65,3.31,3.31,0,0,0,4.65,0l3.29-3.3A3.28,3.28,0,0,0,8.53,39.61Z"/><path class="e" d="M-29-.29h0a1.52,1.52,0,0,1,0-2.13L16.28-47.68a1.51,1.51,0,0,1,2.12,0h0a1.49,1.49,0,0,1,0,2.12L-26.86-.29A1.51,1.51,0,0,1-29-.29Z"/><path class="f" d="M746.09,356.29h0a3.35,3.35,0,0,1,0-4.71l92-92a3.34,3.34,0,0,1,4.72,0h0a3.33,3.33,0,0,1,0,4.71l-92,92A3.34,3.34,0,0,1,746.09,356.29Z"/><path class="g" d="M698.14,268.61a4.21,4.21,0,0,0-5.86,0L675,285.5a4,4,0,0,0,0,5.73,4.23,4.23,0,0,0,5.86,0l17.26-16.89A4,4,0,0,0,698.14,268.61Z"/><path class="j" d="M631.53,401.17h0a1.51,1.51,0,0,1,0-2.12l26.65-26.65a1.51,1.51,0,0,1,2.12,0h0a1.51,1.51,0,0,1,0,2.12l-26.65,26.65A1.49,1.49,0,0,1,631.53,401.17Z"/><path class="j" d="M694.59,352.7h0a1.51,1.51,0,0,1,0-2.12l26.65-26.65a1.51,1.51,0,0,1,2.12,0h0a1.49,1.49,0,0,1,0,2.12L696.72,352.7A1.52,1.52,0,0,1,694.59,352.7Z"/><path class="e" d="M695.74,310.63a2.79,2.79,0,0,0-3.93,0l-11.56,11.56a2.78,2.78,0,0,0,3.92,3.93l11.57-11.57A2.79,2.79,0,0,0,695.74,310.63Z"/><path class="h" d="M751.1,326.06a3.28,3.28,0,0,0-4.64,0l-3.29,3.29a3.28,3.28,0,0,0,4.64,4.64l3.29-3.29A3.28,3.28,0,0,0,751.1,326.06Z"/><path class="e" d="M713.6,286.15h0a1.49,1.49,0,0,1,0-2.12l45.26-45.26a1.51,1.51,0,0,1,2.12,0h0a1.51,1.51,0,0,1,0,2.12l-45.26,45.26A1.49,1.49,0,0,1,713.6,286.15Z"/><path class="h" d="M675.66,348.82a3.28,3.28,0,0,0-4.64,0l-3.29,3.29a3.28,3.28,0,1,0,4.64,4.64l3.29-3.29A3.28,3.28,0,0,0,675.66,348.82Z"/><path class="h" d="M700.51,379.19a3.28,3.28,0,0,0-4.64,0l-3.29,3.29a3.28,3.28,0,0,0,4.64,4.65l3.29-3.3A3.28,3.28,0,0,0,700.51,379.19Z"/><path class="f" d="M34.08,354.07h0a3.33,3.33,0,0,1,0,4.71l-92,92a3.34,3.34,0,0,1-4.72,0h0a3.35,3.35,0,0,1,0-4.71l92.05-92A3.33,3.33,0,0,1,34.08,354.07Z"/><path class="j" d="M24.89,409.09h0a4.94,4.94,0,0,1,0,7L4.34,436.62a5,5,0,0,1-7,0h0a5,5,0,0,1,0-7l20.56-20.55A4.94,4.94,0,0,1,24.89,409.09Z"/><path class="g" d="M82,441.75a4.21,4.21,0,0,0,5.86,0l17.26-16.89a4,4,0,0,0,0-5.72,4.21,4.21,0,0,0-5.86,0L82,436A4,4,0,0,0,82,441.75Z"/><path class="j" d="M148.64,309.19h0a1.51,1.51,0,0,1,0,2.12L122,338a1.51,1.51,0,0,1-2.12,0h0a1.51,1.51,0,0,1,0-2.12l26.65-26.65A1.51,1.51,0,0,1,148.64,309.19Z"/><path class="j" d="M85.58,357.66h0a1.51,1.51,0,0,1,0,2.12L58.93,386.43a1.51,1.51,0,0,1-2.12,0h0a1.51,1.51,0,0,1,0-2.12l26.65-26.65A1.51,1.51,0,0,1,85.58,357.66Z"/><path class="e" d="M84.44,399.73a2.78,2.78,0,0,0,3.92,0l11.57-11.56A2.78,2.78,0,0,0,96,384.24L84.44,395.81A2.78,2.78,0,0,0,84.44,399.73Z"/><path class="h" d="M29.07,384.31a3.3,3.3,0,0,0,4.64,0L37,381a3.28,3.28,0,1,0-4.64-4.64l-3.29,3.29A3.3,3.3,0,0,0,29.07,384.31Z"/><path class="e" d="M66.58,424.21h0a1.51,1.51,0,0,1,0,2.12L21.31,471.59a1.49,1.49,0,0,1-2.12,0h0a1.51,1.51,0,0,1,0-2.12l45.27-45.26A1.51,1.51,0,0,1,66.58,424.21Z"/><path class="h" d="M104.51,361.55a3.3,3.3,0,0,0,4.64,0l3.3-3.3a3.28,3.28,0,0,0-4.65-4.64l-3.29,3.29A3.3,3.3,0,0,0,104.51,361.55Z"/><path class="h" d="M79.66,331.17a3.28,3.28,0,0,0,4.64,0l3.3-3.29A3.28,3.28,0,1,0,83,323.24l-3.29,3.29A3.28,3.28,0,0,0,79.66,331.17Z"/><path class="f" d="M749.52,108.61h0a3.35,3.35,0,0,1,0-4.71l92.05-92.05a3.35,3.35,0,0,1,4.71,0h0a3.34,3.34,0,0,1,0,4.72l-92,92A3.34,3.34,0,0,1,749.52,108.61Z"/><path class="g" d="M701.57,20.93a4.21,4.21,0,0,0-5.86,0L678.46,37.81a4,4,0,0,0,0,5.73,4.2,4.2,0,0,0,5.85,0l17.26-16.88A4,4,0,0,0,701.57,20.93Z"/><path class="j" d="M635,153.49h0a1.51,1.51,0,0,1,0-2.12l26.65-26.65a1.51,1.51,0,0,1,2.12,0h0a1.51,1.51,0,0,1,0,2.12l-26.65,26.65A1.51,1.51,0,0,1,635,153.49Z"/><path class="j" d="M698,105h0a1.49,1.49,0,0,1,0-2.12l26.64-26.65a1.51,1.51,0,0,1,2.12,0h0a1.49,1.49,0,0,1,0,2.12L700.15,105A1.51,1.51,0,0,1,698,105Z"/><path class="e" d="M699.17,63a2.79,2.79,0,0,0-3.93,0L683.68,74.51a2.77,2.77,0,0,0,3.92,3.92l11.57-11.56A2.78,2.78,0,0,0,699.17,63Z"/><path class="h" d="M754.53,78.37a3.3,3.3,0,0,0-4.64,0l-3.29,3.3a3.28,3.28,0,0,0,4.64,4.64L754.53,83A3.3,3.3,0,0,0,754.53,78.37Z"/><path class="e" d="M717,38.47h0a1.49,1.49,0,0,1,0-2.12L762.29-8.91a1.49,1.49,0,0,1,2.12,0h0a1.51,1.51,0,0,1,0,2.12L719.15,38.47A1.51,1.51,0,0,1,717,38.47Z"/><path class="h" d="M679.09,101.13a3.3,3.3,0,0,0-4.64,0l-3.29,3.3a3.28,3.28,0,0,0,4.64,4.64l3.29-3.29A3.3,3.3,0,0,0,679.09,101.13Z"/><path class="h" d="M703.94,131.51a3.28,3.28,0,0,0-4.64,0L696,134.8a3.28,3.28,0,1,0,4.64,4.64l3.29-3.29A3.28,3.28,0,0,0,703.94,131.51Z"/><path class="f" d="M441.07,87.46h0a3.33,3.33,0,0,1,0-4.71l92-92a3.33,3.33,0,0,1,4.71,0h0a3.33,3.33,0,0,1,0,4.71l-92,92A3.33,3.33,0,0,1,441.07,87.46Z"/><path class="f" d="M368.92,156.14h0a3.35,3.35,0,0,1,0-4.71l20.77-20.77a3.35,3.35,0,0,1,4.71,0h0a3.34,3.34,0,0,1,0,4.72l-20.76,20.76A3.34,3.34,0,0,1,368.92,156.14Z"/><path class="j" d="M450.25,32.44h0a5,5,0,0,1,0-7L470.81,4.92a4.94,4.94,0,0,1,7,0h0a4.94,4.94,0,0,1,0,7L457.23,32.44A5,5,0,0,1,450.25,32.44Z"/><path class="g" d="M382.13-5.53a2.86,2.86,0,0,0-4.05,0L366.15,6.4a2.86,2.86,0,1,0,4,4L382.13-1.49A2.87,2.87,0,0,0,382.13-5.53Z"/><path class="j" d="M326.5,132.34h0a1.51,1.51,0,0,1,0-2.12l26.65-26.65a1.51,1.51,0,0,1,2.12,0h0a1.5,1.5,0,0,1,0,2.13l-26.64,26.64A1.5,1.5,0,0,1,326.5,132.34Z"/><path class="e" d="M389.57,83.87h0a1.49,1.49,0,0,1,0-2.12L416.21,55.1a1.52,1.52,0,0,1,2.13,0h0a1.51,1.51,0,0,1,0,2.12L391.69,83.87A1.51,1.51,0,0,1,389.57,83.87Z"/><path class="e" d="M373.05,36.22a2.78,2.78,0,0,0-3.92,0L357.57,47.78a2.78,2.78,0,1,0,3.92,3.93l11.56-11.57A2.78,2.78,0,0,0,373.05,36.22Z"/><path class="h" d="M446.08,57.23a3.3,3.3,0,0,0-4.65,0l-3.29,3.29a3.28,3.28,0,1,0,4.64,4.64l3.3-3.29A3.3,3.3,0,0,0,446.08,57.23Z"/><path class="e" d="M408.57,17.32h0a1.49,1.49,0,0,1,0-2.12l45.26-45.26a1.51,1.51,0,0,1,2.12,0h0a1.49,1.49,0,0,1,0,2.12L410.69,17.32A1.49,1.49,0,0,1,408.57,17.32Z"/><path class="h" d="M371.81,83.07a3.3,3.3,0,0,0-4.64,0l-3.3,3.29A3.29,3.29,0,0,0,368.52,91l3.29-3.3A3.28,3.28,0,0,0,371.81,83.07Z"/><path class="g" d="M404.05,93.94a3.31,3.31,0,0,0-4.65,0l-3.29,3.3a3.28,3.28,0,1,0,4.64,4.64l3.3-3.29A3.31,3.31,0,0,0,404.05,93.94Z"/><path class="g" d="M723.88,392.81a2.88,2.88,0,0,0-4,0L707.9,404.75a2.86,2.86,0,1,0,4.05,4l11.93-11.93A2.86,2.86,0,0,0,723.88,392.81Z"/><path class="e" d="M731.32,482.22h0a1.51,1.51,0,0,1,0-2.12L758,453.45a1.51,1.51,0,0,1,2.12,0h0a1.51,1.51,0,0,1,0,2.12l-26.65,26.65A1.51,1.51,0,0,1,731.32,482.22Z"/><path class="e" d="M714.81,434.56a2.78,2.78,0,0,0-3.92,0l-11.57,11.57a2.77,2.77,0,1,0,3.92,3.92l11.57-11.56A2.79,2.79,0,0,0,714.81,434.56Z"/><path class="e" d="M750.32,415.67h0a1.51,1.51,0,0,1,0-2.12l45.27-45.27a1.51,1.51,0,0,1,2.12,0h0a1.52,1.52,0,0,1,0,2.13l-45.27,45.26A1.51,1.51,0,0,1,750.32,415.67Z"/><path class="h" d="M713.56,481.42a3.28,3.28,0,0,0-4.64,0l-3.29,3.29a3.28,3.28,0,0,0,4.64,4.64l3.29-3.29A3.28,3.28,0,0,0,713.56,481.42Z"/><path class="g" d="M745.8,492.29a3.28,3.28,0,0,0-4.64,0l-3.29,3.29a3.28,3.28,0,0,0,4.64,4.64l3.29-3.29A3.28,3.28,0,0,0,745.8,492.29Z"/><path class="j" d="M547.21,91.46h0a4.94,4.94,0,0,1,0,7L526.66,119a5,5,0,0,1-7,0h0a5,5,0,0,1,0-7l20.55-20.55A4.94,4.94,0,0,1,547.21,91.46Z"/><path class="g" d="M616.81,133.17a2.86,2.86,0,0,0,4.05,0l11.93-11.93a2.86,2.86,0,0,0-4-4l-11.93,11.94A2.85,2.85,0,0,0,616.81,133.17Z"/><path class="j" d="M672.43-4.7h0a1.49,1.49,0,0,1,0,2.12L645.79,24.07a1.52,1.52,0,0,1-2.13,0h0a1.51,1.51,0,0,1,0-2.12L670.31-4.7A1.51,1.51,0,0,1,672.43-4.7Z"/><path class="e" d="M606.58,34.33h0a1.51,1.51,0,0,1,0,2.12L579.93,63.1a1.51,1.51,0,0,1-2.12,0h0a1.5,1.5,0,0,1,0-2.13l26.64-26.64A1.5,1.5,0,0,1,606.58,34.33Z"/><path class="h" d="M479.08,117.62a2.78,2.78,0,0,0,3.92,0l11.56-11.56a2.77,2.77,0,1,0-3.92-3.92L479.08,113.7A2.78,2.78,0,0,0,479.08,117.62Z"/><path class="e" d="M625.88,91.42a2.79,2.79,0,0,0,3.93,0l11.56-11.56a2.77,2.77,0,1,0-3.92-3.92L625.88,87.5A2.78,2.78,0,0,0,625.88,91.42Z"/><path class="f" d="M572.82,168.61a3.28,3.28,0,0,0,4.64,0l3.29-3.29a3.28,3.28,0,1,0-4.64-4.64L572.82,164A3.28,3.28,0,0,0,572.82,168.61Z"/><path class="h" d="M524.56,52.25a3.3,3.3,0,0,0,4.64,0l3.29-3.3a3.28,3.28,0,1,0-4.64-4.64l-3.29,3.3A3.28,3.28,0,0,0,524.56,52.25Z"/><path class="e" d="M590.37,110.32h0a1.51,1.51,0,0,1,0,2.12L545.11,157.7a1.5,1.5,0,0,1-2.13,0h0a1.51,1.51,0,0,1,0-2.12l45.27-45.26A1.49,1.49,0,0,1,590.37,110.32Z"/><path class="h" d="M627.13,44.57a3.28,3.28,0,0,0,4.64,0l3.29-3.29a3.28,3.28,0,1,0-4.64-4.65l-3.29,3.3A3.28,3.28,0,0,0,627.13,44.57Z"/><path class="g" d="M586.84,10.61a3.3,3.3,0,0,0,4.64,0l3.29-3.3a3.28,3.28,0,1,0-4.64-4.64L586.84,6A3.3,3.3,0,0,0,586.84,10.61Z"/><path class="j" d="M83.47,482.1h0a4.94,4.94,0,0,1,0,7L62.91,509.62a4.94,4.94,0,0,1-7,0h0a4.94,4.94,0,0,1,0-7L76.5,482.1A4.94,4.94,0,0,1,83.47,482.1Z"/><path class="j" d="M208.69,385.93h0a1.52,1.52,0,0,1,0,2.13L182,414.7a1.49,1.49,0,0,1-2.12,0h0a1.51,1.51,0,0,1,0-2.12l26.65-26.65A1.51,1.51,0,0,1,208.69,385.93Z"/><path class="e" d="M142.83,425h0a1.49,1.49,0,0,1,0,2.12l-26.64,26.65a1.52,1.52,0,0,1-2.13,0h0a1.51,1.51,0,0,1,0-2.12L140.71,425A1.51,1.51,0,0,1,142.83,425Z"/><path class="h" d="M15.33,508.26a2.78,2.78,0,0,0,3.92,0L30.82,496.7a2.78,2.78,0,0,0-3.92-3.93L15.33,504.34A2.78,2.78,0,0,0,15.33,508.26Z"/><path class="e" d="M162.14,482.06a2.78,2.78,0,0,0,3.92,0l11.57-11.56a2.78,2.78,0,1,0-3.93-3.93l-11.56,11.57A2.78,2.78,0,0,0,162.14,482.06Z"/><path class="h" d="M60.81,442.88a3.28,3.28,0,0,0,4.64,0l3.3-3.29A3.28,3.28,0,1,0,64.11,435l-3.3,3.29A3.3,3.3,0,0,0,60.81,442.88Z"/><path class="h" d="M163.38,435.2a3.3,3.3,0,0,0,4.65,0l3.29-3.29a3.28,3.28,0,0,0-4.64-4.64l-3.3,3.29A3.3,3.3,0,0,0,163.38,435.2Z"/><path class="g" d="M123.09,401.24a3.3,3.3,0,0,0,4.65,0L131,398a3.28,3.28,0,1,0-4.64-4.64l-3.3,3.29A3.3,3.3,0,0,0,123.09,401.24Z"/></g><g class="k"><path class="f" d="M-79.75,526.79h0a3.35,3.35,0,0,1,0-4.71l92-92.05A3.36,3.36,0,0,1,17,430h0a3.36,3.36,0,0,1,0,4.72l-92,92A3.34,3.34,0,0,1-79.75,526.79Z"/><path class="i" d="M-43.77,527.6h0a12.87,12.87,0,0,1,0-18.16l28.51-28.51a12.87,12.87,0,0,1,18.16,0h0a12.89,12.89,0,0,1,0,18.16L-25.61,527.6A12.89,12.89,0,0,1-43.77,527.6Z"/><path class="j" d="M-24.8,427.62h0a4.94,4.94,0,0,1,0-7L-4.24,400.1a4.94,4.94,0,0,1,7,0h0a4.94,4.94,0,0,1,0,7l-20.56,20.55A4.94,4.94,0,0,1-24.8,427.62Z"/><path class="j" d="M-98.38,540.38h0a1.5,1.5,0,0,1,0-2.13L8.74,431.13a1.5,1.5,0,0,1,2.13,0h0a1.51,1.51,0,0,1,0,2.12L-96.26,540.38A1.51,1.51,0,0,1-98.38,540.38Z"/><path class="j" d="M17-4.7h0a1.49,1.49,0,0,1,0,2.12L-9.68,24.07a1.51,1.51,0,0,1-2.12,0h0a1.49,1.49,0,0,1,0-2.12L14.84-4.7A1.51,1.51,0,0,1,17-4.7Z"/></g></svg>