<svg height="40" width="22" xmlns="http://www.w3.org/2000/svg"><path d="m11 9.1c-6 0-10.9 4.9-10.9 10.9 0 4.8 3.1 8.9 7.4 10.3.5.1.7-.2.7-.5v-1.8c-3 .7-3.7-1.5-3.7-1.5-.5-1.3-1.2-1.6-1.2-1.6-1-.7.1-.7.1-.7 1.1.1 1.7 1.1 1.7 1.1 1 1.7 2.5 1.2 3.2.9.1-.7.4-1.2.7-1.5-2.4-.3-4.9-1.2-4.9-5.4 0-1.2.4-2.2 1.1-2.9-.1-.3-.5-1.4.1-2.9 0 0 .9-.3 3 1.1.9-.2 1.8-.4 2.7-.4s1.9.1 2.7.4c2.1-1.4 3-1.1 3-1.1.6 1.5.2 2.6.1 2.9.7.8 1.1 1.7 1.1 2.9 0 4.2-2.5 5.1-5 5.4.4.3.7 1 .7 2v3c0 .3.2.6.7.5 4.3-1.4 7.4-5.5 7.4-10.3.2-5.9-4.7-10.8-10.7-10.8z" fill="#fff" fill-rule="evenodd"/></svg>