<svg id="Layer_1" xmlns="http://www.w3.org/2000/svg" width="22" height="40"><style></style><path fill-rule="evenodd" fill="#fff" d="M11 9.1C5 9.1.1 14 .1 20c0 4.8 3.1 8.9 7.4 10.3.5.1.7-.2.7-.5V28c-3 .7-3.7-1.5-3.7-1.5-.5-1.3-1.2-1.6-1.2-1.6-1-.7.1-.7.1-.7 1.1.1 1.7 1.1 1.7 1.1 1 1.7 2.5 1.2 3.2.9.1-.7.4-1.2.7-1.5-2.4-.3-4.9-1.2-4.9-5.4 0-1.2.4-2.2 1.1-2.9-.1-.3-.5-1.4.1-2.9 0 0 .9-.3 3 1.1.9-.2 1.8-.4 2.7-.4.9 0 1.9.1 2.7.4 2.1-1.4 3-1.1 3-1.1.6 1.5.2 2.6.1 2.9.7.8 1.1 1.7 1.1 2.9 0 4.2-2.5 5.1-5 5.4.4.3.7 1 .7 2v3c0 .3.2.6.7.5 4.3-1.4 7.4-5.5 7.4-10.3C21.9 14 17 9.1 11 9.1z"/></svg>