<svg enable-background="new 0 0 800 800" viewBox="0 0 800 800" xmlns="http://www.w3.org/2000/svg"><path d="m467.7 777.9c-5.6-12.5-5.3-28.4 1-47.8l113.6-349.3-185.9 296c-12.1 19.2-21.4 33.2-27.9 41.9s-15.6 15.6-27.2 20.7-25.3 5.1-41.2 0c-12-3.9-21.2-9.8-27.9-17.6-6.6-7.9-10.9-16.6-12.9-26.1s-2.7-19.6-2.2-30.3c.5-10.6 1.1-21.7 1.8-33.2l23.7-348.8-113.5 349.3c-6.3 19.3-15.3 32.4-27.1 39.3-.1.1-.2.1-.3.1l180 103.9c46.9 27.1 102.9 31.2 152.6 12.5-2.6-3.1-4.8-6.7-6.6-10.6z" fill="#066c62"/><path d="m692.2 134.4-191.2-110.4c-55.5-32-123.8-32-179.3 0l-191.1 110.4c-55.5 32-89.6 91.2-89.6 155.2v220.8c0 36.7 11.3 71.8 31.3 101.1.7-3.1 1.6-6.2 2.6-9.5l130.1-400.3c7.2-22.1 17.8-35.1 31.8-39.1s30.8-2.8 50.4 3.6l31.8 10.3c19.1 6.2 32.4 12.4 39.9 18.7 3.4 2.8 6.1 6 8.2 9.6l126.1 151.4 25.8-40c11.9-18.5 21.3-31.6 28.4-39.2s15.5-11.8 25.2-12.4c9.8-.6 24.2 2.1 43.3 8.3l31.8 10.3c19.6 6.4 33.8 15.3 42.8 26.7l91.4 134.6v-155c-.1-63.9-34.2-123.1-89.7-155.1z" fill="#00a69c"/><path d="m367 204.8c2.6 4.5 4.3 9.5 4.9 15.2 1.2 10.3 1.2 26.5-.1 48.4l-16.6 301.1 137.8-213.3z" fill="#066c62"/><path d="m781.8 510.4v-65.8l-91.4-134.6c9 11.5 9.9 28.2 2.7 50.3l-122 375.2 121.1-69.9c55.5-32 89.6-91.1 89.6-155.2z" fill="#066c62"/><path d="m693.1 360.3c6.5-20 6.3-35.7-.4-46.9l-2.3-3.4c-9-11.4-23.3-20.4-42.8-26.7l-31.8-10.3c-19.1-6.2-33.5-9-43.3-8.3-9.8.6-18.2 4.8-25.2 12.4-7.1 7.6-16.5 20.7-28.4 39.2l-25.8 40-137.8 213.2 16.6-301.1c1.3-22 1.3-38.1.1-48.4-.7-5.7-2.3-10.7-4.9-15.2-2.1-3.6-4.8-6.8-8.2-9.6-7.5-6.3-20.8-12.5-39.9-18.7l-31.8-10.3c-19.6-6.4-36.3-7.6-50.4-3.6-14 4-24.6 17-31.8 39.1l-130.1 400.4c-1.1 3.3-1.9 6.4-2.6 9.5 14.9 21.8 34.7 40.4 58.3 54l11.3 6.5c.1 0 .1-.1.2-.1 11.8-6.9 20.8-20 27.1-39.3l113.6-349.3-23.8 348.7c-.7 11.5-1.3 22.5-1.8 33.2-.5 10.6.2 20.7 2.2 30.3s6.3 18.3 12.9 26.1c6.6 7.9 15.9 13.8 27.9 17.6 15.9 5.2 29.6 5.2 41.2 0 11.6-5.1 20.6-12 27.2-20.7 6.5-8.7 15.8-22.7 27.9-41.9l185.9-296-113.7 349.4c-6.3 19.3-6.6 35.2-1 47.8 1.8 4 4 7.5 6.6 10.7-13.9 5.2-28.2 8.6-42.7 10.3 24.1-2.7 47.7-10.3 69.4-22.8l70.2-40.5z" fill="#fff"/></svg>