<?xml version="1.0" encoding="utf-8"?>
<!-- Generator: Adobe Illustrator 21.0.2, SVG Export Plug-In . SVG Version: 6.00 Build 0)  -->
<svg version="1.1" id="Layer_1" xmlns="http://www.w3.org/2000/svg" xmlns:xlink="http://www.w3.org/1999/xlink" x="0px" y="0px"
	 width="22px" height="40px" viewBox="0 0 22 40" style="enable-background:new 0 0 22 40;" xml:space="preserve">
<style type="text/css">
	.st0{fill:#C8DAEA;}
	.st1{fill:#A9C9DD;}
	.st2{fill:url(#Shape_3_);}
</style>
<title>git_logo</title>
<desc>Created with Sketch.</desc>
<path fill-rule="evenodd" fill="#fff" d="M11,9.1C5,9.1,0.1,14,0.1,20c0,4.8,3.1,8.9,7.4,10.3c0.5,0.1,0.7-0.2,0.7-0.5
	c0-0.3,0-0.9,0-1.8c-3,0.7-3.7-1.5-3.7-1.5c-0.5-1.3-1.2-1.6-1.2-1.6c-1-0.7,0.1-0.7,0.1-0.7c1.1,0.1,1.7,1.1,1.7,1.1
	c1,1.7,2.5,1.2,3.2,0.9c0.1-0.7,0.4-1.2,0.7-1.5c-2.4-0.3-4.9-1.2-4.9-5.4c0-1.2,0.4-2.2,1.1-2.9c-0.1-0.3-0.5-1.4,0.1-2.9
	c0,0,0.9-0.3,3,1.1c0.9-0.2,1.8-0.4,2.7-0.4c0.9,0,1.9,0.1,2.7,0.4c2.1-1.4,3-1.1,3-1.1c0.6,1.5,0.2,2.6,0.1,2.9
	c0.7,0.8,1.1,1.7,1.1,2.9c0,4.2-2.5,5.1-5,5.4c0.4,0.3,0.7,1,0.7,2c0,1.5,0,2.6,0,3c0,0.3,0.2,0.6,0.7,0.5c4.3-1.4,7.4-5.5,7.4-10.3
	C21.9,14,17,9.1,11,9.1z"/>
</svg>
